<svg width="24" height="22" viewBox="0 0 24 22" fill="none" xmlns="http://www.w3.org/2000/svg">
<path d="M5.9498 21.85C7.91634 8.45221 18.4604 0.760476 23.8745 0.668593C23.9298 0.667655 23.9721 0.715736 23.9718 0.770964C23.9362 7.17597 20.5774 7.48579 18.8107 7.64876C18.4024 7.68641 18.0792 7.71623 17.9016 7.81159C16.7051 8.09312 15.8781 8.90875 15.5262 9.32481C15.3676 9.51237 16.7391 9.73297 19.1457 9.52231C19.2335 9.51462 19.287 9.61679 19.2307 9.68467C17.238 12.0897 15.0191 12.5749 13.6282 12.8791C13.1759 12.978 12.8111 13.0578 12.5702 13.1782C10.9172 14.7975 8.12366 18.5278 6.13345 21.917C6.07798 22.0114 5.93389 21.9584 5.9498 21.85Z" fill="white"/>
<path d="M5 1.42411C5.41421 1.42411 5.75 1.75989 5.75 2.17411V5.67411H9.25C9.66421 5.67411 10 6.00989 10 6.42411C10 6.83832 9.66421 7.17411 9.25 7.17411H5.75V10.6741C5.75 11.0883 5.41421 11.4241 5 11.4241C4.58579 11.4241 4.25 11.0883 4.25 10.6741V7.17411H0.75C0.335786 7.17411 0 6.83832 0 6.42411C0 6.00989 0.335786 5.67411 0.75 5.67411H4.25V2.17411C4.25 1.75989 4.58579 1.42411 5 1.42411Z" fill="white"/>
</svg>
