<svg width="176" height="192" viewBox="0 0 176 192" fill="none" xmlns="http://www.w3.org/2000/svg">
<ellipse cx="91.7315" cy="107.257" rx="84.2686" ry="84.7427" fill="white"/>
<path fill-rule="evenodd" clip-rule="evenodd" d="M175.409 117.347C160.585 124.63 143.103 128.834 124.382 128.834C115.198 128.834 106.312 127.822 97.8919 125.931C83.565 132.548 66.9061 136.339 49.1307 136.339C35.4146 136.339 22.3632 134.082 10.5351 130.011C8.53301 122.77 7.4629 115.14 7.4629 107.257C7.4629 60.4552 45.1912 22.5146 91.7315 22.5146C138.272 22.5146 176 60.4552 176 107.257C176 110.671 175.799 114.038 175.409 117.347Z" fill="#4ADCE4"/>
<path fill-rule="evenodd" clip-rule="evenodd" d="M108.779 190.265C147.147 182.338 176 148.186 176 107.257C176 99.7113 175.019 92.3956 173.179 85.4321C169.45 84.7735 165.613 84.43 161.696 84.43C125.288 84.43 95.7738 114.11 95.7738 150.723C95.7738 165.542 100.609 179.226 108.779 190.265Z" fill="#33A9BD"/>
<path fill-rule="evenodd" clip-rule="evenodd" d="M7.55734 111.305C7.49461 109.964 7.4629 108.614 7.4629 107.257C7.4629 83.8883 16.8692 62.7287 32.082 47.3983C38.4083 50.5828 43.616 55.6819 46.9541 61.9402C52.72 51.13 64.0646 43.7785 77.1166 43.7785C96.0075 43.7785 111.322 59.1787 111.322 78.1759C111.322 97.173 96.0075 112.573 77.1166 112.573C64.0646 112.573 52.72 105.222 46.9541 94.4116C41.1881 105.222 29.8435 112.573 16.7915 112.573C13.5918 112.573 10.4948 112.131 7.55734 111.305Z" fill="#33A9BD"/>
<rect x="16.7915" y="64.4169" width="18.0353" height="27.5179" rx="9.01767" fill="#1A373A"/>
<path d="M30.9343 68.267C32.2432 70.0858 32.5842 73.1417 31.7495 73.7492C30.9147 74.3567 29.177 73.3747 27.8681 71.5559C26.5593 69.737 26.1749 67.7701 27.0097 67.1626C27.8445 66.5551 29.6255 66.4482 30.9343 68.267Z" fill="#F2F2F2"/>
<rect x="64.6784" y="64.4169" width="18.0353" height="27.5179" rx="9.01767" fill="#1A373A"/>
<path d="M78.8212 68.267C80.1301 70.0858 80.4712 73.1417 79.6364 73.7492C78.8016 74.3567 77.0639 73.3747 75.755 71.5559C74.4462 69.737 74.0619 67.7701 74.8966 67.1626C75.7314 66.5551 77.5124 66.4482 78.8212 68.267Z" fill="#F2F2F2"/>
<path d="M2.8708 129.153L40.1853 93.8174C40.5999 93.4005 41.9889 92.5666 44.2277 92.5666C47.0263 92.5666 48.892 92.2539 51.0687 96.0064C52.8101 99.0083 52.2089 103.094 51.6906 104.762L44.5387 110.078L21.839 126.339C17.382 129.466 8.03267 135.782 6.29133 136.032C4.11465 136.345 1.00508 135.72 0.383172 135.094C-0.114354 134.594 -0.238625 132.593 0.694181 131.342L2.8708 129.153Z" fill="#7F544E"/>
<path d="M105.949 10.0132V25.9611L70.1897 27.8373L69.2569 26.8992C66.6656 25.023 62.4159 20.0823 66.1473 15.3292C69.8788 10.5761 77.6526 12.9318 81.0731 14.7038C81.1768 13.6614 81.4463 11.264 81.6951 10.0132C81.9438 8.7624 83.6644 5.94807 84.4936 4.69725C85.2192 3.23797 88.4117 0.256863 95.377 0.00670057C102.342 -0.243462 105.328 6.57348 105.949 10.0132Z" fill="#4ADCE4"/>
</svg>
