<svg width="20" height="20" viewBox="0 0 20 20" fill="none" xmlns="http://www.w3.org/2000/svg">
<path fill-rule="evenodd" clip-rule="evenodd" d="M17.2 8.51762C17.2 10.301 17.6769 12.0519 18.5813 13.5889L19.5566 15.2464C19.7527 15.5798 19.5124 16 19.1256 16H14.4371C14.3808 16.3327 14.2872 16.6588 14.1575 16.9721C13.9313 17.518 13.5998 18.0141 13.182 18.432C12.7641 18.8498 12.268 19.1813 11.7221 19.4075C11.1761 19.6336 10.5909 19.75 10 19.75C9.40905 19.75 8.82389 19.6336 8.27792 19.4075C7.73196 19.1813 7.23588 18.8498 6.81802 18.432C6.40016 18.0141 6.06869 17.518 5.84254 16.9721C5.7128 16.6588 5.61918 16.3327 5.56294 16H0.874295C0.487558 16 0.247234 15.5798 0.443359 15.2464L1.41866 13.5889C2.32305 12.0519 2.79996 10.301 2.79996 8.51762V6.62069C2.79996 2.96418 6.02351 0 9.99996 0C13.9764 0 17.2 2.96418 17.2 6.62069V8.51762ZM4.29996 6.62069C4.29996 3.90858 6.731 1.5 9.99996 1.5C13.2689 1.5 15.7 3.90858 15.7 6.62069V8.51762C15.7 10.5685 16.2484 12.582 17.2885 14.3496L17.3769 14.5H2.62297L2.71146 14.3496C3.75151 12.582 4.29996 10.5685 4.29996 8.51762V6.62069ZM7.09526 16C7.1302 16.1353 7.17464 16.2683 7.22836 16.3981C7.37913 16.762 7.6001 17.0927 7.87868 17.3713C8.15726 17.6499 8.48797 17.8709 8.85195 18.0216C9.21593 18.1724 9.60603 18.25 10 18.25C10.394 18.25 10.7841 18.1724 11.1481 18.0216C11.512 17.8709 11.8427 17.6499 12.1213 17.3713C12.3999 17.0927 12.6209 16.762 12.7716 16.3981C12.8254 16.2683 12.8698 16.1353 12.9047 16H7.09526Z" fill="#687684"/>
</svg>
